<?xml version="1.0" encoding="UTF-8" standalone="no"?>
<svg width="254px" height="86px" viewBox="0 0 254 86" version="1.1" xmlns="http://www.w3.org/2000/svg" xmlns:xlink="http://www.w3.org/1999/xlink" xmlns:sketch="http://www.bohemiancoding.com/sketch/ns">
    <title>mike-logo</title>
    <description>Created with Sketch (http://www.bohemiancoding.com/sketch)</description>
    <defs></defs>
    <g id="Page 1" fill="#D8D8D8" fill-rule="evenodd">
        <g id="mike-logo" fill="#000000">
            <path d="M36.1125037,40.8937525 L36.3375037,12.7125025 L36.1687537,12.7125025 L25.8187537,40.8937525 L19.0687537,40.8937525 L9.00000375,12.7125025 L8.83125375,12.7125025 L9.05625375,40.8937525 L3.74999998e-06,40.8937525 L3.74999998e-06,1.0687525 L13.6687537,1.0687525 L22.7250037,26.6062525 L22.9500037,26.6062525 L31.6125037,1.0687525 L45.5062537,1.0687525 L45.5062537,40.8937525 L36.1125037,40.8937525" id="path3452"></path>
            <path d="M53.7187512,40.8937525 L53.7187512,1.0687525 L63.3937512,1.0687525 L63.3937512,40.8937525 L53.7187512,40.8937525" id="path3454"></path>
            <path d="M106.650004,35.3812525 C104.887466,37.406256 102.712469,39.0187544 100.125004,40.2187525 C97.5374737,41.381252 94.5562262,41.9625014 91.1812537,41.9625025 C88.1062325,41.9625014 85.2562362,41.4562519 82.6312537,40.4437525 C80.0437412,39.431254 77.7937437,38.0062554 75.8812537,36.1687525 C73.9687475,34.2937591 72.4687487,32.0625114 71.3812537,29.4750025 C70.2937512,26.8875163 69.7500012,24.0375188 69.7500037,20.9250025 C69.7500012,17.7375263 70.2937512,14.8500288 71.3812537,12.2625025 C72.5062487,9.67503375 74.0437475,7.48128625 75.9937537,5.6812525 C77.9437425,3.84379 80.2312412,2.43754125 82.8562537,1.4625025 C85.481235,0.4875425 88.3124825,4.37500001e-05 91.3500037,2.50000005e-06 C94.1624775,4.37500001e-05 96.9187237,0.5062925 99.6187537,1.5187525 C102.356219,2.49379125 104.568716,3.93754 106.256254,5.8500025 L99.7312537,12.3750025 C98.8312225,11.1375325 97.6499737,10.2187838 96.1875037,9.6187525 C94.7249762,9.01878375 93.2249775,8.718785 91.6875037,8.7187525 C89.9999812,8.718785 88.4437325,9.03753375 87.0187537,9.6750025 C85.631235,10.2750325 84.4312362,11.1187825 83.4187537,12.2062525 C82.4062387,13.29378 81.61874,14.5875288 81.0562537,16.0875025 C80.49374,17.5500263 80.2124912,19.1625238 80.2125037,20.9250025 C80.2124912,22.7250213 80.49374,24.3750188 81.0562537,25.8750025 C81.61874,27.3750163 82.3874887,28.6687648 83.3625037,29.7562525 C84.3749862,30.8062626 85.574985,31.6312618 86.9625037,32.2312525 C88.3499825,32.8312606 89.8687312,33.1312603 91.5187537,33.1312525 C93.4312275,33.1312603 95.0999762,32.7562606 96.5250037,32.0062525 C97.9499725,31.2562621 99.0937225,30.2812631 99.9562537,29.0812525 L106.650004,35.3812525" id="path3456"></path>
            <path d="M135.900004,40.8937525 L135.900004,24.2437525 L120.375007,24.2437525 L120.375007,40.8937525 L110.756258,40.8937525 L110.756258,1.0687525 L120.375007,1.0687525 L120.375007,16.1437525 L135.900004,16.1437525 L135.900004,1.0687525 L145.518754,1.0687525 L145.518754,40.8937525 L135.900004,40.8937525" id="path3458"></path>
            <path d="M180.731254,40.8937525 L177.637504,33.0750025 L162.225004,33.0750025 L159.300004,40.8937525 L148.837504,40.8937525 L165.543754,1.0687525 L174.881254,1.0687525 L191.418754,40.8937525 L180.731254,40.8937525 M170.043754,11.7000025 L164.981254,25.3687525 L174.993754,25.3687525 L170.043754,11.7000025" id="path3460"></path>
            <path d="M194.737491,40.8937525 L194.737491,1.0687525 L221.512491,1.0687525 L221.512491,9.2250025 L204.018741,9.2250025 L204.018741,16.7062525 L220.556241,16.7062525 L220.556241,24.4125025 L204.018741,24.4125025 L204.018741,32.6812525 L222.524991,32.6812525 L222.524991,40.8937525 L194.737491,40.8937525" id="path3462"></path>
            <path d="M228.881254,40.8937525 L228.881254,1.0687525 L238.556254,1.0687525 L238.556254,32.5125025 L253.968754,32.5125025 L253.968754,40.8937525 L228.881254,40.8937525" id="path3464"></path>
            <path d="M0.281255,46.0687525 L7.368755,46.0687525 L7.368755,63.2812525 L7.537505,63.2812525 L24.187505,46.0687525 L33.750005,46.0687525 L15.131255,64.4625025 L34.987505,85.8937525 L25.031255,85.8937525 L7.537505,65.9250025 L7.368755,65.9250025 L7.368755,85.8937525 L0.281255,85.8937525 L0.281255,46.0687525" id="path3698"></path>
            <path d="M39.0375062,46.0687525 L65.4187575,46.0687525 L65.4187575,52.2562525 L46.1250075,52.2562525 L46.1250075,62.3812525 L64.4062575,62.3812525 L64.4062575,68.3437525 L46.1250075,68.3437525 L46.1250075,79.5937525 L66.4312575,79.5937525 L66.4312575,85.8937525 L39.0375062,85.8937525 L39.0375062,46.0687525" id="path3700"></path>
            <path d="M73.3500075,46.0687525 L80.4375075,46.0687525 L80.4375075,79.5937525 L97.3687575,79.5937525 L97.3687575,85.8937525 L73.3500075,85.8937525 L73.3500075,46.0687525" id="path3702"></path>
            <path d="M102.093757,46.0687525 L109.181257,46.0687525 L109.181257,79.5937525 L126.112507,79.5937525 L126.112507,85.8937525 L102.093757,85.8937525 L102.093757,46.0687525" id="path3704"></path>
            <path d="M135.618757,68.6250025 L120.656257,46.0687525 L129.318758,46.0687525 L139.331257,62.8312525 L149.456257,46.0687525 L157.668757,46.0687525 L142.706257,68.6250025 L142.706257,85.8937525 L135.618757,85.8937525 L135.618757,68.6250025" id="path3706"></path>
        </g>
    </g>
</svg>