<?xml version="1.0" encoding="UTF-8" standalone="no"?>
<svg width="189px" height="53px" viewBox="0 0 189 53" version="1.1" xmlns="http://www.w3.org/2000/svg" xmlns:xlink="http://www.w3.org/1999/xlink" xmlns:sketch="http://www.bohemiancoding.com/sketch/ns">
    <title>mike-info</title>
    <description>Created with Sketch (http://www.bohemiancoding.com/sketch)</description>
    <defs></defs>
    <g id="Page 1" fill="#D8D8D8" fill-rule="evenodd">
        <g id="icons">
            <path d="M187.568834,49.8437486 L187.568834,41.8080343 C187.345603,42.0591585 187.10495,42.289348 186.846875,42.4986035 C184.977441,43.9355518 183.491673,45.114401 182.389565,46.0351549 C182.033806,46.3351029 181.744325,46.5687801 181.521122,46.7361871 C181.297897,46.9036011 180.994465,47.0744995 180.610827,47.2488825 C180.234142,47.416296 179.878395,47.5000013 179.543583,47.4999986 L179.533121,47.4999986 L179.522658,47.4999986 C179.187826,47.5000013 178.828591,47.416296 178.44495,47.2488825 C178.068268,47.0744995 177.768325,46.9036011 177.545118,46.7361871 C177.321896,46.5687801 177.032416,46.3351029 176.676675,46.0351549 C175.574549,45.114401 174.08878,43.9355518 172.219364,42.4986035 C171.961271,42.289348 171.720618,42.0591585 171.497406,41.8080343 L171.497406,49.8437486 C171.497404,49.9344296 171.528795,50.0146472 171.591575,50.0844015 C171.661327,50.1471805 171.741545,50.17857 171.832227,50.17857 L187.234013,50.17857 C187.324675,50.17857 187.401406,50.1471805 187.464203,50.0844015 C187.53394,50.0146472 187.568815,49.9344296 187.56884,49.8437486 M187.56884,38.8469573 C187.568824,38.8330173 187.568824,38.7946523 187.56884,38.7318623 C187.568824,38.6690948 187.568824,38.6237548 187.56884,38.5958411 C187.568824,38.5609749 187.56534,38.5156349 187.55834,38.4598199 C187.558323,38.3970524 187.54784,38.3517124 187.526953,38.3237986 C187.51299,38.2959086 187.49554,38.2645199 187.47464,38.2296299 C187.453703,38.1947649 187.422303,38.1703511 187.380465,38.1563874 C187.33859,38.1354724 187.289765,38.1250099 187.23398,38.1249974 L171.832195,38.1249974 C171.741512,38.1250094 171.661295,38.1598861 171.591542,38.2296286 C171.528762,38.2924199 171.497372,38.3691494 171.497373,38.4598184 C171.497372,39.6317039 172.010066,40.6222164 173.035459,41.4313585 C174.381716,42.4916341 175.780292,43.5972413 177.23119,44.7481834 C177.273036,44.7830659 177.395106,44.8876975 177.597401,45.0620784 C177.799681,45.2294941 177.960116,45.3585398 178.078707,45.4492158 C178.197282,45.5399008 178.350741,45.6515081 178.539086,45.7840371 C178.73439,45.9095994 178.912264,46.0037679 179.072708,46.0665428 C179.233134,46.1293253 179.383106,46.1607153 179.522624,46.1607115 L179.533087,46.1607115 L179.543549,46.1607115 C179.683049,46.1607155 179.833021,46.1293265 179.993466,46.0665428 C180.153891,46.0037678 180.328277,45.9095994 180.516624,45.7840371 C180.711926,45.6515081 180.868873,45.5399011 180.987467,45.4492158 C181.106038,45.3585395 181.266473,45.2294941 181.468772,45.0620784 C181.671049,44.8876975 181.793119,44.783066 181.834983,44.7481834 C183.285864,43.5972413 184.684439,42.4916341 186.030715,41.4313585 C186.407373,41.1314234 186.756145,40.7303356 187.077031,40.228094 C187.40486,39.7188969 187.568784,39.2585179 187.5688,38.8469556 M188.90812,38.45982 L188.90812,49.8437486 C188.908101,50.3041279 188.744179,50.6982402 188.416351,51.0260867 C188.088488,51.3539316 187.694375,51.5178544 187.234013,51.5178558 L171.832227,51.5178558 C171.371846,51.5178544 170.977734,51.3539316 170.649889,51.0260867 C170.322043,50.6982402 170.15812,50.3041279 170.15812,49.8437486 L170.15812,38.45982 C170.15812,37.9994528 170.322043,37.60534 170.649889,37.2774813 C170.977734,36.9496488 171.371846,36.7857263 171.832227,36.7857125 L187.234013,36.7857125 C187.694375,36.7857263 188.088488,36.9496488 188.416351,37.2774813 C188.744179,37.60534 188.908101,37.9994528 188.90812,38.45982" id="path11641" fill="#0A5493"></path>
            <path d="M180.470816,20.2399539 C180.738666,19.9720983 180.872594,19.6540183 180.872602,19.2857129 C180.872594,18.9174118 180.738666,18.6049121 180.470816,18.3482129 C180.214113,18.0803591 179.901613,17.9464306 179.533316,17.9464271 C179.165007,17.9464306 178.846927,18.0803591 178.579075,18.3482129 C178.322374,18.6049121 178.194026,18.9174118 178.194031,19.2857129 C178.194026,19.6540183 178.322374,19.9720983 178.579075,20.2399539 C178.846927,20.4966513 179.165007,20.6249994 179.533316,20.6249986 C179.901613,20.6249994 180.214113,20.4966513 180.470816,20.2399539 M184.354745,16.6071414 L184.354745,4.8214275 C184.354734,4.676355 184.29893,4.5535875 184.187334,4.45312375 C184.086877,4.34153625 183.964109,4.28573 183.819031,4.2857125 L175.247602,4.2857125 C175.102511,4.28573 174.974163,4.3415375 174.862558,4.45312375 C174.76211,4.55358625 174.711886,4.676355 174.711888,4.8214275 L174.711888,16.6071414 C174.711886,16.7522354 174.762109,16.8805835 174.862558,16.9921861 C174.974163,17.0926374 175.102511,17.14286 175.247602,17.1428558 L183.819031,17.1428558 C183.964109,17.14286 184.086877,17.092637 184.187334,16.9921861 C184.29893,16.8805835 184.354734,16.7522354 184.354745,16.6071414 M180.872602,2.67857 C181.051166,2.67858875 181.140451,2.5893075 181.140459,2.4107125 C181.140451,2.23216125 181.051166,2.142875 180.872602,2.14285625 L178.194031,2.14285625 C178.015454,2.142875 177.926169,2.23215625 177.926174,2.4107125 C177.926169,2.58930375 178.015455,2.67858875 178.194031,2.67857 L180.872602,2.67857 M185.961888,2.14285625 L185.961888,19.2857129 C185.961875,19.8660716 185.749821,20.3683032 185.325727,20.7924093 C184.901608,21.2165166 184.399377,21.42857 183.819031,21.42857 L175.247602,21.42857 C174.667243,21.42857 174.165012,21.2165166 173.740906,20.7924093 C173.316798,20.3683032 173.104745,19.8660716 173.104745,19.2857129 L173.104745,2.14285625 C173.104745,1.56251875 173.316798,1.06028625 173.740906,0.63615875 C174.165012,0.21207375 174.667243,2e-05 175.247602,-1.24999996e-06 L183.819031,-1.24999996e-06 C184.399377,2e-05 184.901608,0.21207375 185.325727,0.63615875 C185.749821,1.06028625 185.961875,1.56251875 185.961888,2.14285625" id="path11644" fill="#0A5493"></path>
        </g>
        <g id="phone-number">
            <path d="M63.455995,10.89232 L67.112245,10.89232 L67.112245,11.86732 L63.455995,11.86732 L63.455995,15.52357 L62.480995,15.52357 L62.480995,11.86732 L58.824745,11.86732 L58.824745,10.89232 L62.480995,10.89232 L62.480995,7.23607 L63.455995,7.23607 L63.455995,10.89232" id="path11647" fill="#424242"></path>
            <path d="M72.263495,16.30357 L72.263495,6.09857 L70.150995,7.73982 L69.614745,6.86232 L72.328495,4.79857 L73.352245,4.79857 L73.352245,16.30357 L72.263495,16.30357" id="path11649" fill="#424242"></path>
            <path d="M84.678495,13.55732 L84.678495,16.30357 L83.654745,16.30357 L83.654745,13.55732 L79.527245,13.55732 L79.527245,12.50107 L83.183495,4.79857 L84.678495,4.79857 L84.678495,12.58232 L86.108495,12.58232 L86.108495,13.55732 L84.678495,13.55732 M83.670995,5.88732 L83.638495,5.88732 L80.550995,12.58232 L83.670995,12.58232 L83.670995,5.88732" id="path11651" fill="#424242"></path>
            <path d="M93.5672463,10.55107 C93.5672388,11.2227418 93.5239088,11.9106578 93.4372463,12.61482 C93.3614088,13.3189896 93.20974,13.9581556 92.9822463,14.53232 C92.75474,15.1064879 92.4405738,15.5777374 92.0397463,15.94607 C91.6389075,16.3144033 91.1189088,16.4985698 90.4797463,16.49857 C89.8405763,16.4985698 89.3205763,16.3144033 88.9197463,15.94607 C88.5189113,15.5777374 88.204745,15.1064879 87.9772463,14.53232 C87.749745,13.9581556 87.5926625,13.3189896 87.5059963,12.61482 C87.4193338,11.9106578 87.375995,11.2227418 87.3759963,10.55107 C87.375995,9.87940975 87.4193338,9.19149375 87.5059963,8.48732 C87.5926588,7.78316188 87.749745,7.14399588 87.9772463,6.56982 C88.204745,5.99566363 88.5189113,5.52441413 88.9197463,5.15607 C89.3205763,4.78774813 89.8405763,4.60358175 90.4797463,4.60357 C91.1189088,4.60358175 91.6389075,4.78774813 92.0397463,5.15607 C92.4405738,5.52441413 92.75474,5.99566363 92.9822463,6.56982 C93.20974,7.14399588 93.3614063,7.78316188 93.4372463,8.48732 C93.5239088,9.19149375 93.5672388,9.87940975 93.5672463,10.55107 M92.4134963,10.55107 C92.41349,10.2802428 92.4026213,9.971493 92.3809963,9.62482 C92.3701213,9.267327 92.3430713,8.90441075 92.2997463,8.53607 C92.2564088,8.16774475 92.1914088,7.81024513 92.1047463,7.46357 C92.0180713,7.10607925 91.9043238,6.79191288 91.7634963,6.52107 C91.6226575,6.23941338 91.4439075,6.01733025 91.2272463,5.85482 C91.0214088,5.68149725 90.7722425,5.59483075 90.4797463,5.59482 C90.1872425,5.59483075 89.93266,5.6814975 89.7159963,5.85482 C89.51016,6.01733025 89.3368263,6.23941338 89.1959963,6.52107 C89.05516,6.79191288 88.9359938,7.10607925 88.8384963,7.46357 C88.7518338,7.81024513 88.6868275,8.16774475 88.6434963,8.53607 C88.6001588,8.90441075 88.5676588,9.267327 88.5459963,9.62482 C88.5351213,9.971493 88.5297463,10.2802428 88.5297463,10.55107 C88.5297438,10.8327421 88.5351213,11.1523251 88.5459963,11.50982 C88.5676588,11.8564911 88.6001588,12.2139908 88.6434963,12.58232 C88.6868338,12.9398234 88.7518213,13.297323 88.8384963,13.65482 C88.9359963,14.001489 89.05516,14.3156554 89.1959963,14.59732 C89.3368263,14.8681548 89.51016,15.0902379 89.7159963,15.26357 C89.93266,15.4260709 90.1872425,15.5073208 90.4797463,15.50732 C90.7722425,15.5073208 91.0214088,15.4260709 91.2272463,15.26357 C91.4439075,15.0902379 91.6226575,14.8681548 91.7634963,14.59732 C91.9043238,14.3156554 92.0180738,14.001489 92.1047463,13.65482 C92.1914088,13.297323 92.2564075,12.9398234 92.2997463,12.58232 C92.3430713,12.2139908 92.3701588,11.8564911 92.3809963,11.50982 C92.4026588,11.1523251 92.4134963,10.8327421 92.4134963,10.55107" id="path11653" fill="#424242"></path>
            <path d="M100.684745,7.60982 C100.684739,7.96732838 100.641408,8.308578 100.554745,8.63357 C100.478908,8.947744 100.365155,9.26191038 100.213495,9.57607 C100.061823,9.87940975 99.8776563,10.1935761 99.660995,10.51857 C99.4551563,10.8327421 99.2276563,11.1739918 98.978495,11.54232 L96.362245,15.29607 L100.570995,15.29607 L100.570995,16.30357 L95.127245,16.30357 L95.127245,15.23107 L98.263495,10.76232 C98.65349,10.1989928 98.96224,9.67357663 99.189745,9.18607 C99.41724,8.68774425 99.5309888,8.1894115 99.530995,7.69107 C99.5309888,7.40941225 99.498495,7.14399588 99.433495,6.89482 C99.368495,6.63482963 99.2655725,6.40732988 99.124745,6.21232 C98.99474,6.01733025 98.8268238,5.86566375 98.620995,5.75732 C98.42599,5.63816375 98.1930738,5.57858075 97.922245,5.57857 C97.4564075,5.57858075 97.071825,5.73566388 96.768495,6.04982 C96.4759925,6.35316325 96.2755763,6.7973295 96.167245,7.38232 L95.094745,7.25232 C95.24641,6.38566325 95.57141,5.73024725 96.069745,5.28607 C96.5680763,4.8310815 97.2072413,4.60358175 97.987245,4.60357 C98.44224,4.60358175 98.8376563,4.68483125 99.173495,4.84732 C99.5093225,4.998998 99.7855725,5.21566438 100.002245,5.49732 C100.229739,5.76816388 100.397655,6.08774688 100.505995,6.45607 C100.625158,6.8135795 100.684739,7.1981625 100.684745,7.60982" id="path11655" fill="#424242"></path>
            <path d="M111.328496,7.60982 C111.32849,7.96732838 111.285159,8.308578 111.198496,8.63357 C111.122659,8.947744 111.008906,9.26191038 110.857246,9.57607 C110.705574,9.87940975 110.521408,10.1935761 110.304746,10.51857 C110.098908,10.8327421 109.871408,11.1739918 109.622246,11.54232 L107.005996,15.29607 L111.214746,15.29607 L111.214746,16.30357 L105.770996,16.30357 L105.770996,15.23107 L108.907246,10.76232 C109.297241,10.1989928 109.605991,9.67357663 109.833496,9.18607 C110.060991,8.68774425 110.174741,8.1894115 110.174746,7.69107 C110.174741,7.40941225 110.142246,7.14399588 110.077246,6.89482 C110.012246,6.63482963 109.909325,6.40732988 109.768496,6.21232 C109.638491,6.01733025 109.470575,5.86566375 109.264746,5.75732 C109.069743,5.63816375 108.836825,5.57858075 108.565996,5.57857 C108.10016,5.57858075 107.715576,5.73566388 107.412246,6.04982 C107.119744,6.35316325 106.919328,6.7973295 106.810996,7.38232 L105.738496,7.25232 C105.890163,6.38566325 106.215161,5.73024725 106.713496,5.28607 C107.211828,4.8310815 107.850994,4.60358175 108.630996,4.60357 C109.085993,4.60358175 109.481409,4.68483125 109.817246,4.84732 C110.153074,4.998998 110.429324,5.21566438 110.645996,5.49732 C110.87349,5.76816388 111.041406,6.08774688 111.149746,6.45607 C111.268909,6.8135795 111.32849,7.1981625 111.328496,7.60982" id="path11657" fill="#424242"></path>
            <path d="M119.177248,12.69607 C119.17724,13.3027396 119.10141,13.8444058 118.949748,14.32107 C118.808908,14.7869049 118.603074,15.1823211 118.332248,15.50732 C118.072241,15.8323205 117.758075,16.0814869 117.389748,16.25482 C117.021409,16.4173199 116.620576,16.4985698 116.187248,16.49857 C115.472244,16.4985698 114.876411,16.31982 114.399748,15.96232 C113.933913,15.6048207 113.592663,15.1010712 113.375998,14.45107 L114.350998,14.09357 C114.524329,14.5377384 114.762661,14.8844048 115.065998,15.13357 C115.369328,15.3827376 115.73766,15.5073208 116.170998,15.50732 C116.734326,15.5073208 117.194743,15.263571 117.552248,14.77607 C117.909741,14.2777388 118.088491,13.5952394 118.088498,12.72857 C118.088491,11.9052411 117.909741,11.2389918 117.552248,10.72982 C117.194743,10.2206594 116.674743,9.96607638 115.992248,9.96607 C115.678078,9.96607638 115.342244,10.0202425 114.984748,10.12857 C114.638079,10.2260763 114.340161,10.356076 114.090998,10.51857 L114.220998,4.79857 L118.787248,4.79857 L118.787248,5.78982 L115.195998,5.78982 L115.082248,9.38107 C115.266411,9.29441 115.472244,9.22399375 115.699748,9.16982 C115.938078,9.1048275 116.149326,9.0723275 116.333498,9.07232 C116.820993,9.07232725 117.238075,9.16441 117.584748,9.34857 C117.942241,9.52191013 118.240158,9.7710765 118.478498,10.09607 C118.716824,10.4102425 118.890158,10.7894089 118.998498,11.23357 C119.11766,11.6777413 119.17724,12.1652408 119.177248,12.69607" id="path11659" fill="#424242"></path>
            <path d="M127.123493,10.55107 C127.123486,11.2227418 127.080155,11.9106578 126.993493,12.61482 C126.917655,13.3189896 126.765986,13.9581556 126.538493,14.53232 C126.310986,15.1064879 125.99682,15.5777374 125.595993,15.94607 C125.195155,16.3144033 124.675155,16.4985698 124.035993,16.49857 C123.396823,16.4985698 122.876824,16.3144033 122.475993,15.94607 C122.075158,15.5777374 121.760991,15.1064879 121.533493,14.53232 C121.305991,13.9581556 121.148909,13.3189896 121.062243,12.61482 C120.97558,11.9106578 120.932243,11.2227418 120.932243,10.55107 C120.932243,9.87940975 120.97558,9.19149375 121.062243,8.48732 C121.148905,7.78316188 121.305991,7.14399588 121.533493,6.56982 C121.760991,5.99566363 122.075158,5.52441413 122.475993,5.15607 C122.876824,4.78774813 123.396823,4.60358175 124.035993,4.60357 C124.675155,4.60358175 125.195155,4.78774813 125.595993,5.15607 C125.99682,5.52441413 126.310986,5.99566363 126.538493,6.56982 C126.765986,7.14399588 126.917653,7.78316188 126.993493,8.48732 C127.080155,9.19149375 127.123486,9.87940975 127.123493,10.55107 M125.969743,10.55107 C125.969738,10.2802428 125.958868,9.971493 125.937243,9.62482 C125.926368,9.267327 125.899318,8.90441075 125.855993,8.53607 C125.812655,8.16774475 125.747655,7.81024513 125.660993,7.46357 C125.574318,7.10607925 125.460571,6.79191288 125.319743,6.52107 C125.178905,6.23941338 125.000155,6.01733025 124.783493,5.85482 C124.577655,5.68149725 124.328489,5.59483075 124.035993,5.59482 C123.74349,5.59483075 123.488906,5.6814975 123.272243,5.85482 C123.066406,6.01733025 122.893074,6.23941338 122.752243,6.52107 C122.611408,6.79191288 122.492241,7.10607925 122.394743,7.46357 C122.308068,7.81024513 122.243074,8.16774475 122.199743,8.53607 C122.156405,8.90441075 122.123905,9.267327 122.102243,9.62482 C122.091368,9.971493 122.085993,10.2802428 122.085993,10.55107 C122.085991,10.8327421 122.091368,11.1523251 122.102243,11.50982 C122.123905,11.8564911 122.156405,12.2139908 122.199743,12.58232 C122.24308,12.9398234 122.30808,13.297323 122.394743,13.65482 C122.492243,14.001489 122.611408,14.3156554 122.752243,14.59732 C122.893074,14.8681548 123.066406,15.0902379 123.272243,15.26357 C123.488906,15.4260709 123.74349,15.5073208 124.035993,15.50732 C124.328489,15.5073208 124.577655,15.4260709 124.783493,15.26357 C125.000155,15.0902379 125.178905,14.8681548 125.319743,14.59732 C125.460571,14.3156554 125.574321,14.001489 125.660993,13.65482 C125.747655,13.297323 125.812654,12.9398234 125.855993,12.58232 C125.899318,12.2139908 125.926405,11.8564911 125.937243,11.50982 C125.958905,11.1523251 125.969743,10.8327421 125.969743,10.55107" id="path11661" fill="#424242"></path>
            <path d="M137.490997,13.16732 C137.49099,13.600656 137.425985,14.017739 137.295997,14.41857 C137.165991,14.8194049 136.970991,15.1769045 136.710998,15.49107 C136.450991,15.7944038 136.131409,16.0381536 135.752248,16.22232 C135.373076,16.4064866 134.939742,16.4985698 134.452247,16.49857 C133.693911,16.4985698 133.054745,16.3089867 132.534748,15.92982 C132.025579,15.5506541 131.662663,15.0035713 131.445998,14.28857 L132.453497,13.99607 C132.605161,14.4510719 132.843495,14.8194049 133.168498,15.10107 C133.504327,15.3827376 133.915994,15.5235708 134.403498,15.52357 C134.739326,15.5235708 135.031826,15.4531543 135.280998,15.31232 C135.530159,15.1606545 135.735993,14.9710714 135.898498,14.74357 C136.060991,14.5052385 136.180159,14.2452388 136.255998,13.96357 C136.34266,13.681906 136.385991,13.4056563 136.385998,13.13482 C136.385991,12.354824 136.174741,11.7644079 135.752248,11.36357 C135.340576,10.9519086 134.804326,10.7460755 134.143498,10.74607 L133.802248,10.74607 L133.802248,9.83607 L134.159748,9.83607 C134.744743,9.8360765 135.215992,9.63566 135.573498,9.23482 C135.930993,8.83399413 136.109741,8.292328 136.109748,7.60982 C136.109741,7.37149563 136.077247,7.1331625 136.012248,6.89482 C135.947235,6.65649638 135.844325,6.43982988 135.703497,6.24482 C135.562659,6.04983025 135.383909,5.89274713 135.167248,5.77357 C134.96141,5.64358063 134.706826,5.57858075 134.403498,5.57857 C134.056827,5.57858075 133.742661,5.6814975 133.460998,5.88732 C133.190161,6.08233025 132.978911,6.35316325 132.827247,6.69982 L131.852248,6.37482 C132.090579,5.77899725 132.453495,5.334831 132.940998,5.04232 C133.428495,4.7498315 133.93766,4.60358175 134.468498,4.60357 C134.890993,4.60358175 135.270159,4.679415 135.605998,4.83107 C135.941825,4.97191463 136.223491,5.17233113 136.450998,5.43232 C136.689325,5.69233063 136.873491,6.00108025 137.003498,6.35857 C137.133491,6.70524625 137.19849,7.0844125 137.198498,7.49607 C137.19849,7.81024513 137.160573,8.11899488 137.084747,8.42232 C137.00891,8.71482763 136.895158,8.98566063 136.743497,9.23482 C136.602657,9.4839935 136.418491,9.70065988 136.190998,9.88482 C135.974325,10.0581596 135.714325,10.1773261 135.410998,10.24232 L135.410998,10.27482 C136.039325,10.3939925 136.543075,10.7135756 136.922247,11.23357 C137.301408,11.7535745 137.49099,12.3981573 137.490997,13.16732" id="path11663" fill="#424242"></path>
            <path d="M145.388493,13.16732 C145.388486,13.665656 145.318068,14.1206555 145.177243,14.53232 C145.036403,14.9331548 144.83057,15.279821 144.559743,15.57232 C144.299738,15.8648204 143.980154,16.0923202 143.600993,16.25482 C143.221821,16.4173199 142.799323,16.4985698 142.333493,16.49857 C141.867656,16.4985698 141.445156,16.4173199 141.065993,16.25482 C140.697658,16.0923202 140.383491,15.8648204 140.123493,15.57232 C139.863491,15.279821 139.663075,14.9331548 139.522243,14.53232 C139.381409,14.1206555 139.310993,13.665656 139.310993,13.16732 C139.310993,12.3873239 139.473493,11.7427413 139.798493,11.23357 C140.123491,10.7244089 140.578491,10.3723259 141.163493,10.17732 L141.163493,10.14482 C140.643491,9.92815975 140.248075,9.59232675 139.977243,9.13732 C139.717241,8.68232763 139.587241,8.14607813 139.587243,7.52857 C139.587241,7.12774588 139.641405,6.7485795 139.749743,6.39107 C139.868905,6.03358025 140.042241,5.72483063 140.269743,5.46482 C140.508074,5.19399775 140.795158,4.982748 141.130993,4.83107 C141.477656,4.679415 141.87849,4.60358175 142.333493,4.60357 C142.788489,4.60358175 143.183905,4.679415 143.519743,4.83107 C143.866404,4.982748 144.153488,5.19399775 144.380993,5.46482 C144.61932,5.72483063 144.79807,6.03358025 144.917243,6.39107 C145.036405,6.7485795 145.095986,7.12774588 145.095993,7.52857 C145.095986,8.14607813 144.965986,8.68232763 144.705993,9.13732 C144.445988,9.59232675 144.055988,9.92815975 143.535993,10.14482 L143.535993,10.17732 C144.120988,10.3939926 144.575986,10.7514923 144.900993,11.24982 C145.225986,11.7481579 145.388486,12.3873239 145.388493,13.16732 M143.974743,7.59357 C143.974738,6.97607938 143.828488,6.46691313 143.535993,6.06607 C143.254321,5.66524725 142.853489,5.46483088 142.333493,5.46482 C141.802656,5.46483088 141.396406,5.66524725 141.114743,6.06607 C140.843908,6.46691313 140.708491,6.97607938 140.708493,7.59357 C140.708491,7.88607838 140.746405,8.16232813 140.822243,8.42232 C140.89808,8.68232763 141.006408,8.90982738 141.147243,9.10482 C141.288074,9.299827 141.45599,9.45691013 141.650993,9.57607 C141.856823,9.69524375 142.084323,9.7548265 142.333493,9.75482 C142.582655,9.7548265 142.810155,9.69524375 143.015993,9.57607 C143.221821,9.45691 143.395155,9.299827 143.535993,9.10482 C143.676821,8.90982738 143.785154,8.68232763 143.860993,8.42232 C143.936818,8.16232813 143.974743,7.88607838 143.974743,7.59357 M144.218493,13.11857 C144.218488,12.3819073 144.045154,11.7860745 143.698493,11.33107 C143.351821,10.8652421 142.896823,10.6323256 142.333493,10.63232 C141.770156,10.6323256 141.315156,10.8652421 140.968493,11.33107 C140.621824,11.7860745 140.448491,12.3819073 140.448493,13.11857 C140.448491,13.4652395 140.49183,13.7902391 140.578493,14.09357 C140.665155,14.3969053 140.789741,14.6623216 140.952243,14.88982 C141.11474,15.1064879 141.30974,15.279821 141.537243,15.40982 C141.775573,15.5289875 142.04099,15.5885707 142.333493,15.58857 C142.636823,15.5885707 142.902239,15.5289874 143.129743,15.40982 C143.368071,15.279821 143.568488,15.1064879 143.730993,14.88982 C143.893488,14.6623216 144.012654,14.3969053 144.088493,14.09357 C144.175155,13.7902391 144.218488,13.4652395 144.218493,13.11857" id="path11665" fill="#424242"></path>
            <path d="M148.947244,16.30357 L147.744744,16.30357 L151.514744,5.80607 L147.013494,5.80607 L147.013494,4.79857 L152.652244,4.79857 L152.652244,5.75732 L148.947244,16.30357" id="path11667" fill="#424242"></path>
            <path d="M160.712245,12.74482 C160.712238,13.3189896 160.636408,13.8389891 160.484745,14.30482 C160.343905,14.7598215 160.138071,15.1498212 159.867245,15.47482 C159.596405,15.7998205 159.265989,16.0544036 158.875995,16.23857 C158.496823,16.4119032 158.074324,16.4985698 157.608495,16.49857 C157.120991,16.4985698 156.682241,16.4119032 156.292245,16.23857 C155.913076,16.0544036 155.588076,15.7998205 155.317245,15.47482 C155.057244,15.1498212 154.856826,14.7598215 154.715995,14.30482 C154.57516,13.8389891 154.504744,13.329823 154.504745,12.77732 C154.504744,12.2356574 154.575158,11.7048246 154.715995,11.18482 C154.86766,10.6648256 155.073494,10.1448261 155.333495,9.62482 L157.705995,4.79857 L158.940995,4.79857 L156.438495,9.70607 L156.470995,9.72232 C156.644325,9.53816013 156.855575,9.39191025 157.104745,9.28357 C157.364741,9.16441 157.64099,9.10482725 157.933495,9.10482 C158.269324,9.10482725 158.59974,9.17524375 158.924745,9.31607 C159.260573,9.44607688 159.558489,9.65732663 159.818495,9.94982 C160.089321,10.242326 160.305988,10.6214924 160.468495,11.08732 C160.630988,11.5423248 160.712238,12.0948243 160.712245,12.74482 M159.574745,12.74482 C159.574739,12.3439906 159.531408,11.9756576 159.444745,11.63982 C159.368908,11.2931584 159.249739,11.0006586 159.087245,10.76232 C158.935573,10.5131591 158.740573,10.323576 158.502245,10.19357 C158.263906,10.0527429 157.98224,9.98232638 157.657245,9.98232 C157.353908,9.98232638 157.077658,10.0527425 156.828495,10.19357 C156.579325,10.3344093 156.362659,10.5348258 156.178495,10.79482 C156.005159,11.0439919 155.869743,11.3419083 155.772245,11.68857 C155.674745,12.0244076 155.625993,12.3873239 155.625995,12.77732 C155.625993,13.6223226 155.804743,14.2939886 156.162245,14.79232 C156.519741,15.2906544 157.007241,15.5398208 157.624745,15.53982 C158.24224,15.5398208 158.718906,15.279821 159.054745,14.75982 C159.401405,14.2398221 159.574739,13.5681561 159.574745,12.74482" id="path11669" fill="#424242"></path>
        </g>
        <g id="email">
            <path d="M1.137495,42.31982 C1.25665875,41.7781604 1.48415888,41.3394108 1.819995,41.00357 C2.16665825,40.6569115 2.6108245,40.4835784 3.152495,40.48357 C3.44499025,40.4835784 3.69415675,40.537745 3.899995,40.64607 C4.11665625,40.7435775 4.29540613,40.8789946 4.436245,41.05232 C4.58790588,41.2148276 4.70165575,41.4098274 4.777495,41.63732 C4.864155,41.864827 4.9291555,42.0977434 4.972495,42.33607 L5.004995,42.33607 C5.06998875,42.0977434 5.16207188,41.8702436 5.281245,41.65357 C5.400405,41.4260774 5.54665488,41.2256609 5.719995,41.05232 C5.9041545,40.8789946 6.10998763,40.743578 6.337495,40.64607 C6.5758205,40.537745 6.84123688,40.4835784 7.133745,40.48357 C7.5670695,40.4835784 7.91373588,40.5756613 8.173745,40.75982 C8.43373538,40.9439945 8.63415175,41.1877443 8.774995,41.49107 C8.9266515,41.783577 9.02415138,42.11941 9.067495,42.49857 C9.12165125,42.8669093 9.148735,43.2352423 9.148745,43.60357 L9.148745,48.80357 L8.059995,48.80357 L8.059995,43.60357 C8.05998575,43.3544088 8.04373575,43.1052424 8.011245,42.85607 C7.98956913,42.5960763 7.9354025,42.3631598 7.848745,42.15732 C7.76206938,41.9406603 7.6320695,41.767327 7.458745,41.63732 C7.2962365,41.496494 7.07415338,41.4260774 6.792495,41.42607 C6.53248725,41.4260774 6.29415413,41.50191 6.077495,41.65357 C5.8716545,41.7944104 5.69832138,41.9948268 5.557495,42.25482 C5.416655,42.503993 5.30832175,42.7964926 5.232495,43.13232 C5.156655,43.4573254 5.11873875,43.798575 5.118745,44.15607 L5.118745,48.80357 L4.046245,48.80357 L4.046245,43.60357 C4.04623975,43.3544088 4.02998975,43.0998258 3.997495,42.83982 C3.97582313,42.5798263 3.9216565,42.3469098 3.834995,42.14107 C3.75915663,41.9244103 3.6345735,41.751077 3.461245,41.62107 C3.2987405,41.4910773 3.082074,41.4260774 2.811245,41.42607 C2.54040788,41.4260774 2.30207475,41.50191 2.096245,41.65357 C1.8904085,41.7944104 1.71165875,41.9948268 1.559995,42.25482 C1.419159,42.503993 1.31082575,42.7964926 1.234995,43.13232 C1.15915875,43.4573254 1.1212425,43.798575 1.121245,44.15607 L1.121245,48.80357 L0.064995,48.80357 L0.064995,42.77482 C0.064993625,42.6014929 0.0595825,42.4173264 0.048745,42.22232 C0.04874375,42.0164935 0.0433325,41.8214936 0.032495,41.63732 C0.03249375,41.4423274 0.0270825,41.2689943 0.016245,41.11732 C0.01624375,40.9548279 0.0108325,40.8302446 -4.99999994e-06,40.74357 L1.039995,40.74357 C1.06166,40.9494111 1.07790875,41.1985776 1.088745,41.49107 C1.09957,41.783577 1.1049925,42.0598268 1.104995,42.31982 L1.137495,42.31982" id="path11672" fill="#424242"></path>
            <path d="M12.837495,38.27357 C12.8374925,38.5010803 12.76707,38.6906635 12.626245,38.84232 C12.48541,38.9831631 12.3174925,39.0535798 12.122495,39.05357 C11.91666,39.0535798 11.7433275,38.9831638 11.602495,38.84232 C11.4724938,38.6906635 11.4074938,38.5010803 11.407495,38.27357 C11.4074938,38.0569141 11.472495,37.8727476 11.602495,37.72107 C11.7433275,37.5694146 11.91666,37.4935813 12.122495,37.49357 C12.3283263,37.4935813 12.4962425,37.569415 12.626245,37.72107 C12.7670763,37.8727476 12.8374925,38.0569141 12.837495,38.27357 M11.586245,48.80357 L11.586245,40.74357 L12.658745,40.74357 L12.658745,48.80357 L11.586245,48.80357" id="path11674" fill="#424242"></path>
            <path d="M19.239995,48.23482 C18.8066563,48.78732 18.2108238,49.0635697 17.452495,49.06357 C16.9974913,49.0635697 16.5966588,48.9606531 16.249995,48.75482 C15.9033263,48.5381536 15.6108263,48.2456539 15.372495,47.87732 C15.1449938,47.4981546 14.97166,47.0485718 14.852495,46.52857 C14.7333325,45.9977395 14.6737438,45.41274 14.673745,44.77357 C14.6737438,44.134408 14.7333325,43.5548253 14.852495,43.03482 C14.9716575,42.503993 15.15041,42.0489934 15.388745,41.66982 C15.6270763,41.2906609 15.9195763,40.9981611 16.266245,40.79232 C16.6129088,40.5864949 17.0137413,40.4835784 17.468745,40.48357 C17.8804075,40.4835784 18.23249,40.5594113 18.524995,40.71107 C18.81749,40.8627446 19.0504063,41.0414944 19.223745,41.24732 L18.654995,42.02732 C18.52499,41.8431603 18.36249,41.6969105 18.167495,41.58857 C17.97249,41.4802438 17.7449913,41.4260774 17.484995,41.42607 C17.1924913,41.4260774 16.9379088,41.5127438 16.721245,41.68607 C16.5154088,41.848577 16.342075,42.0814934 16.201245,42.38482 C16.0604088,42.6773261 15.9520763,43.0294091 15.876245,43.44107 C15.811245,43.8419083 15.778745,44.2860745 15.778745,44.77357 C15.7787425,45.2502403 15.811245,45.6889898 15.876245,46.08982 C15.9520825,46.4906556 16.0604088,46.837322 16.201245,47.12982 C16.342075,47.4223214 16.520825,47.6498212 16.737495,47.81232 C16.9649913,47.9748208 17.2304075,48.0560708 17.533745,48.05607 C17.8045738,48.0560708 18.03749,48.0019041 18.232495,47.89357 C18.4383238,47.7744044 18.6116563,47.6119045 18.752495,47.40607 L19.239995,48.23482" id="path11676" fill="#424242"></path>
            <path d="M24.683745,48.80357 L24.683745,43.60357 C24.6837388,43.3544088 24.667495,43.1052424 24.634995,42.85607 C24.61332,42.5960763 24.5591575,42.3631598 24.472495,42.15732 C24.38582,41.9406603 24.2558225,41.767327 24.082495,41.63732 C23.91999,41.496494 23.7033238,41.4260774 23.432495,41.42607 C23.1616575,41.4260774 22.9179075,41.50191 22.701245,41.65357 C22.4954088,41.7944104 22.3166588,41.9948268 22.164995,42.25482 C22.013325,42.503993 21.8941588,42.7964926 21.807495,43.13232 C21.7316575,43.4573254 21.693745,43.798575 21.693745,44.15607 L21.693745,48.80357 L20.621245,48.80357 L20.621245,36.51857 L21.693745,36.51857 L21.693745,42.27107 L21.726245,42.27107 C21.867075,41.751077 22.110825,41.3231609 22.457495,40.98732 C22.8041575,40.6514949 23.2374913,40.4835784 23.757495,40.48357 C24.1908238,40.4835784 24.53749,40.5756613 24.797495,40.75982 C25.0683225,40.9439945 25.274155,41.1877443 25.414995,41.49107 C25.5558213,41.783577 25.647905,42.11941 25.691245,42.49857 C25.7454075,42.8669093 25.772495,43.2352423 25.772495,43.60357 L25.772495,48.80357 L24.683745,48.80357" id="path11678" fill="#424242"></path>
            <path d="M31.5899963,48.80357 C31.5791213,48.7169034 31.5683213,48.6085702 31.5574963,48.47857 C31.5574913,48.3485705 31.5521213,48.2131539 31.5412463,48.07232 C31.5412413,47.9206542 31.5412413,47.779821 31.5412463,47.64982 C31.5412413,47.508988 31.5412413,47.3898214 31.5412463,47.29232 L31.5087463,47.29232 C31.2379088,48.4406537 30.5879088,49.0148198 29.5587463,49.01482 C29.3312438,49.0148198 29.1037438,48.9714865 28.8762463,48.88482 C28.6487438,48.7981533 28.4429113,48.6573202 28.2587463,48.46232 C28.0745788,48.2673205 27.9229113,48.0235708 27.8037463,47.73107 C27.6845838,47.427738 27.624995,47.0648218 27.6249963,46.64232 C27.624995,46.0573228 27.7279088,45.5860733 27.9337463,45.22857 C28.1395788,44.8710739 28.3995775,44.5894075 28.7137463,44.38357 C29.02791,44.1777413 29.36916,44.0423248 29.7374963,43.97732 C30.11666,43.9014913 30.4741588,43.863575 30.8099963,43.86357 L31.4437463,43.86357 L31.4437463,43.44107 C31.4437413,42.7369094 31.3137413,42.2223266 31.0537463,41.89732 C30.7937425,41.5723273 30.4416588,41.4098274 29.9974963,41.40982 C29.69416,41.4098274 29.4124938,41.4910775 29.1524963,41.65357 C28.8924938,41.816077 28.6704113,42.0219101 28.4862463,42.27107 L27.9174963,41.60482 C28.1666613,41.2473275 28.4916613,40.9710779 28.8924963,40.77607 C29.2933275,40.5810783 29.69416,40.4835784 30.0949963,40.48357 C30.9399925,40.4835784 31.5412413,40.759828 31.8987463,41.31232 C32.2562413,41.864827 32.43499,42.6719095 32.4349963,43.73357 L32.4349963,47.08107 C32.43499,47.189405 32.43499,47.3248215 32.4349963,47.48732 C32.4458713,47.6498212 32.4512463,47.8177377 32.4512463,47.99107 C32.4621213,48.1535707 32.4729088,48.3106538 32.4837463,48.46232 C32.4946213,48.6031535 32.5054088,48.7169034 32.5162463,48.80357 L31.5899963,48.80357 M31.4599963,44.70857 L30.8099963,44.70857 C30.5499925,44.7085741 30.2899925,44.7356575 30.0299963,44.78982 C29.7699938,44.8331575 29.5370763,44.9252405 29.3312463,45.06607 C29.1362438,45.1960736 28.9737438,45.3802401 28.8437463,45.61857 C28.7137438,45.8569063 28.6487438,46.165656 28.6487463,46.54482 C28.6487438,47.108155 28.7733338,47.5144046 29.0224963,47.76357 C29.27166,48.0127375 29.5424938,48.1373207 29.8349963,48.13732 C30.1383263,48.1373207 30.3929088,48.0452374 30.5987463,47.86107 C30.8154088,47.6769045 30.983325,47.443988 31.1024963,47.16232 C31.2324913,46.8806553 31.324575,46.5719056 31.3787463,46.23607 C31.4329088,45.9002396 31.4599963,45.5752399 31.4599963,45.26107 L31.4599963,44.70857" id="path11680" fill="#424242"></path>
            <path d="M35.376245,45.00107 C35.3762425,45.44524 35.4141575,45.8569063 35.489995,46.23607 C35.5658325,46.6044055 35.6741588,46.9294053 35.814995,47.21107 C35.9666588,47.4819046 36.150825,47.6985711 36.367495,47.86107 C36.5949913,48.0127375 36.8604075,48.0885707 37.163745,48.08857 C37.55374,48.0885707 37.8679075,47.9694041 38.106245,47.73107 C38.3445738,47.492738 38.52874,47.2056549 38.658745,46.86982 L39.471245,47.34107 C39.2762388,47.828571 38.9837388,48.2402372 38.593745,48.57607 C38.2145738,48.9010699 37.7270738,49.0635697 37.131245,49.06357 C36.232075,49.0635697 35.5333263,48.6844035 35.034995,47.92607 C34.53666,47.1677383 34.2874938,46.1223226 34.287495,44.78982 C34.2874938,44.1614913 34.352495,43.5819085 34.482495,43.05107 C34.6124938,42.520243 34.79666,42.0652434 35.034995,41.68607 C35.28416,41.3069109 35.5820763,41.0144111 35.928745,40.80857 C36.2862413,40.5919115 36.6816588,40.4835784 37.114995,40.48357 C37.5916575,40.4835784 37.99249,40.586495 38.317495,40.79232 C38.6533225,40.9981611 38.9241563,41.2798275 39.129995,41.63732 C39.3358225,41.9948268 39.4820725,42.4119098 39.568745,42.88857 C39.666245,43.3652421 39.7149888,43.8744083 39.714995,44.41607 L39.714995,45.00107 L35.376245,45.00107 M38.626245,44.10732 C38.62624,43.2948255 38.5016575,42.6448261 38.252495,42.15732 C38.0033238,41.6589938 37.6133238,41.4098274 37.082495,41.40982 C36.768325,41.4098274 36.5029088,41.5073275 36.286245,41.70232 C36.0804088,41.8864936 35.907075,42.11941 35.766245,42.40107 C35.6362425,42.6719095 35.5387425,42.9644091 35.473745,43.27857 C35.4195825,43.5927419 35.392495,43.8689916 35.392495,44.10732 L38.626245,44.10732" id="path11682" fill="#424242"></path>
            <path d="M41.648745,48.80357 L41.648745,36.51857 L42.721245,36.51857 L42.721245,48.80357 L41.648745,48.80357" id="path11684" fill="#424242"></path>
            <path d="M53.8037463,42.18982 C53.8037363,42.7531594 53.7441588,43.2785755 53.6249963,43.76607 C53.5166588,44.2535745 53.3541538,44.6814908 53.1374963,45.04982 C52.92082,45.4073234 52.6554038,45.6889898 52.3412463,45.89482 C52.037905,46.100656 51.6912388,46.2035726 51.3012463,46.20357 C50.9545725,46.2035726 50.6729063,46.1060725 50.4562463,45.91107 C50.2395738,45.7052398 50.1366563,45.3964901 50.1474963,44.98482 L50.1312463,44.98482 C50.0662338,45.1148238 49.9904063,45.2556569 49.9037463,45.40732 C49.8170713,45.5481566 49.70874,45.6781565 49.5787463,45.79732 C49.4595713,45.91649 49.3133238,46.0139895 49.1399963,46.08982 C48.9774913,46.1656563 48.793325,46.2035725 48.5874963,46.20357 C48.2949913,46.2035726 48.0404088,46.1385725 47.8237463,46.00857 C47.6179088,45.8677396 47.4445763,45.6835731 47.3037463,45.45607 C47.16291,45.2285736 47.0545763,44.9685739 46.9787463,44.67607 C46.9137463,44.3727411 46.8812463,44.0531581 46.8812463,43.71732 C46.8812438,43.2514923 46.9299963,42.7802428 47.0274963,42.30357 C47.1358213,41.8269103 47.2874925,41.3989941 47.4824963,41.01982 C47.6883263,40.6406615 47.9374925,40.3319118 48.2299963,40.09357 C48.533325,39.8552456 48.8799913,39.7360791 49.2699963,39.73607 C49.6491575,39.7360791 49.9416563,39.8498288 50.1474963,40.07732 C50.3533225,40.3048285 50.4779063,40.5810783 50.5212463,40.90607 L50.5699963,40.90607 L50.7487463,40.12607 L51.7074963,40.12607 L51.1224963,42.92107 C51.0683213,43.2135756 51.0249838,43.511492 50.9924963,43.81482 C50.9599838,44.118158 50.9437338,44.3456578 50.9437463,44.49732 C50.9437388,44.7248241 50.9762338,44.9035739 51.0412463,45.03357 C51.1170713,45.1635736 51.2633225,45.2339903 51.4799963,45.24482 C51.6858213,45.2556575 51.875405,45.1798238 52.0487463,45.01732 C52.232905,44.854824 52.3845713,44.6327409 52.5037463,44.35107 C52.6229088,44.0694081 52.7149875,43.7444084 52.7799963,43.37607 C52.8558213,43.0077425 52.8937338,42.6177429 52.8937463,42.20607 C52.8937375,41.5560773 52.8179088,40.9656611 52.6662463,40.43482 C52.5145713,39.9039956 52.2870713,39.448996 51.9837463,39.06982 C51.6912388,38.6798301 51.3283225,38.3819138 50.8949963,38.17607 C50.4616563,37.9702475 49.9633238,37.8673309 49.3999963,37.86732 C48.8149913,37.8673309 48.2841588,38.0081641 47.8074963,38.28982 C47.3308263,38.5714969 46.9245763,38.9506631 46.5887463,39.42732 C46.2637438,39.9039956 46.0091613,40.456495 45.8249963,41.08482 C45.6408275,41.7131604 45.548745,42.3739931 45.5487463,43.06732 C45.548745,43.8039916 45.6354088,44.486491 45.8087463,45.11482 C45.9820775,45.7323231 46.2312438,46.2739893 46.5562463,46.73982 C46.8920763,47.1948216 47.3037425,47.5523213 47.7912463,47.81232 C48.2787413,48.0723207 48.8366575,48.2023206 49.4649963,48.20232 C50.1041563,48.2023206 50.6837388,48.0614874 51.2037463,47.77982 C51.7345713,47.4873214 52.1787375,47.1298216 52.5362463,46.70732 L53.0724963,47.47107 C52.6174875,47.9910708 52.0920713,48.3973204 51.4962463,48.68982 C50.9004063,48.9714865 50.19624,49.1123197 49.3837463,49.11232 C48.6037413,49.1123197 47.9104088,48.9606532 47.3037463,48.65732 C46.70791,48.3539871 46.20416,47.9314875 45.7924963,47.38982 C45.3916613,46.8481553 45.0883288,46.2089893 44.8824963,45.47232 C44.6766625,44.7356574 44.573745,43.9339915 44.5737463,43.06732 C44.573745,42.2114933 44.6874963,41.415244 44.9149963,40.67857 C45.142495,39.9419123 45.467495,39.3027461 45.8899963,38.76107 C46.3124938,38.2085806 46.82166,37.7752478 47.4174963,37.46107 C48.013325,37.146915 48.6741575,36.9898319 49.3999963,36.98982 C50.1041563,36.9898319 50.7270725,37.1089988 51.2687463,37.34732 C51.8212388,37.5856645 52.281655,37.9323309 52.6499963,38.38732 C53.0291538,38.8314966 53.3162363,39.3785794 53.5112463,40.02857 C53.7062363,40.6677448 53.8037363,41.3881608 53.8037463,42.18982 M50.2937463,42.15732 C50.29374,41.767327 50.2287338,41.431494 50.0987463,41.14982 C49.9795713,40.857328 49.7466575,40.7110781 49.3999963,40.71107 C49.1508238,40.7110781 48.9341575,40.8085775 48.7499963,41.00357 C48.565825,41.1877443 48.4141588,41.4260774 48.2949963,41.71857 C48.1758213,42.0110768 48.0837425,42.3414931 48.0187463,42.70982 C47.9537463,43.0673258 47.9212463,43.4194088 47.9212463,43.76607 C47.9212425,44.1885746 47.9916588,44.5406576 48.1324963,44.82232 C48.2841588,45.1039904 48.533325,45.2448235 48.8799963,45.24482 C49.1183238,45.2448235 49.3241575,45.1310738 49.4974963,44.90357 C49.6816575,44.6760741 49.8279075,44.3998244 49.9362463,44.07482 C50.0554088,43.749825 50.1420738,43.413992 50.1962463,43.06732 C50.2612338,42.7098261 50.2937463,42.4064931 50.2937463,42.15732" id="path11686" fill="#424242"></path>
            <path d="M56.7612463,42.31982 C56.8804088,41.7781604 57.10791,41.3394108 57.4437463,41.00357 C57.7904088,40.6569115 58.234575,40.4835784 58.7762463,40.48357 C59.0687413,40.4835784 59.3179075,40.537745 59.5237463,40.64607 C59.7404075,40.7435775 59.9191563,40.8789946 60.0599963,41.05232 C60.2116563,41.2148276 60.3254063,41.4098274 60.4012463,41.63732 C60.4879088,41.864827 60.5529063,42.0977434 60.5962463,42.33607 L60.6287463,42.33607 C60.6937338,42.0977434 60.7858225,41.8702436 60.9049963,41.65357 C61.0241588,41.4260774 61.170405,41.2256609 61.3437463,41.05232 C61.527905,40.8789946 61.7337388,40.743578 61.9612463,40.64607 C62.1995713,40.537745 62.4649875,40.4835784 62.7574963,40.48357 C63.19082,40.4835784 63.5374863,40.5756613 63.7974963,40.75982 C64.0574863,40.9439945 64.2579025,41.1877443 64.3987463,41.49107 C64.5504025,41.783577 64.6479025,42.11941 64.6912463,42.49857 C64.7453963,42.8669093 64.7724838,43.2352423 64.7724963,43.60357 L64.7724963,48.80357 L63.6837463,48.80357 L63.6837463,43.60357 C63.6837363,43.3544088 63.6674838,43.1052424 63.6349963,42.85607 C63.6133213,42.5960763 63.5591588,42.3631598 63.4724963,42.15732 C63.3858213,41.9406603 63.25582,41.767327 63.0824963,41.63732 C62.9199875,41.496494 62.6979038,41.4260774 62.4162463,41.42607 C62.1562375,41.4260774 61.917905,41.50191 61.7012463,41.65357 C61.495405,41.7944104 61.3220725,41.9948268 61.1812463,42.25482 C61.0404063,42.503993 60.9320725,42.7964926 60.8562463,43.13232 C60.7804088,43.4573254 60.7424838,43.798575 60.7424963,44.15607 L60.7424963,48.80357 L59.6699963,48.80357 L59.6699963,43.60357 C59.66999,43.3544088 59.6537463,43.0998258 59.6212463,42.83982 C59.5995713,42.5798263 59.5454088,42.3469098 59.4587463,42.14107 C59.3829088,41.9244103 59.2583238,41.751077 59.0849963,41.62107 C58.9224913,41.4910773 58.705825,41.4260774 58.4349963,41.42607 C58.1641588,41.4260774 57.925825,41.50191 57.7199963,41.65357 C57.5141588,41.7944104 57.33541,41.9948268 57.1837463,42.25482 C57.04291,42.503993 56.9345763,42.7964926 56.8587463,43.13232 C56.7829088,43.4573254 56.7449963,43.798575 56.7449963,44.15607 L56.7449963,48.80357 L55.6887463,48.80357 L55.6887463,42.77482 C55.6887438,42.6014929 55.6833713,42.4173264 55.6724963,42.22232 C55.672495,42.0164935 55.6671213,41.8214936 55.6562463,41.63732 C55.656245,41.4423274 55.6508713,41.2689943 55.6399963,41.11732 C55.639995,40.9548279 55.6346213,40.8302446 55.6237463,40.74357 L56.6637463,40.74357 C56.6854088,40.9494111 56.7016588,41.1985776 56.7124963,41.49107 C56.7233713,41.783577 56.7287463,42.0598268 56.7287463,42.31982 L56.7612463,42.31982" id="path11688" fill="#424242"></path>
            <path d="M68.4612475,38.27357 C68.461245,38.5010803 68.3908225,38.6906635 68.2499975,38.84232 C68.1091613,38.9831631 67.941245,39.0535798 67.7462475,39.05357 C67.5404125,39.0535798 67.3670788,38.9831638 67.2262475,38.84232 C67.0962463,38.6906635 67.0312463,38.5010803 67.0312475,38.27357 C67.0312463,38.0569141 67.0962475,37.8727476 67.2262475,37.72107 C67.3670788,37.5694146 67.5404125,37.4935813 67.7462475,37.49357 C67.9520788,37.4935813 68.119995,37.569415 68.2499975,37.72107 C68.3908275,37.8727476 68.461245,38.0569141 68.4612475,38.27357 M67.2099975,48.80357 L67.2099975,40.74357 L68.2824975,40.74357 L68.2824975,48.80357 L67.2099975,48.80357" id="path11690" fill="#424242"></path>
            <path d="M74.6524925,48.80357 L71.8899925,44.74107 L71.8574925,44.74107 L71.8574925,48.80357 L70.7849925,48.80357 L70.7849925,36.51857 L71.8574925,36.51857 L71.8574925,44.30232 L71.8899925,44.30232 L74.4899925,40.74357 L75.7737425,40.74357 L72.8812425,44.48107 L75.9524925,48.80357 L74.6524925,48.80357" id="path11692" fill="#424242"></path>
            <path d="M77.8862438,45.00107 C77.8862425,45.44524 77.9241563,45.8569063 77.9999938,46.23607 C78.0758313,46.6044055 78.1841588,46.9294053 78.3249938,47.21107 C78.4766575,47.4819046 78.660825,47.6985711 78.8774938,47.86107 C79.1049913,48.0127375 79.3704075,48.0885707 79.6737438,48.08857 C80.06374,48.0885707 80.3779063,47.9694041 80.6162438,47.73107 C80.8545725,47.492738 81.0387388,47.2056549 81.1687438,46.86982 L81.9812438,47.34107 C81.7862388,47.828571 81.4937388,48.2402372 81.1037438,48.57607 C80.7245725,48.9010699 80.2370725,49.0635697 79.6412438,49.06357 C78.742075,49.0635697 78.043325,48.6844035 77.5449938,47.92607 C77.04666,47.1677383 76.7974938,46.1223226 76.7974938,44.78982 C76.7974938,44.1614913 76.8624938,43.5819085 76.9924938,43.05107 C77.1224925,42.520243 77.3066588,42.0652434 77.5449938,41.68607 C77.7941588,41.3069109 78.092075,41.0144111 78.4387438,40.80857 C78.7962413,40.5919115 79.1916575,40.4835784 79.6249938,40.48357 C80.1016563,40.4835784 80.50249,40.586495 80.8274938,40.79232 C81.1633225,40.9981611 81.434155,41.2798275 81.6399938,41.63732 C81.8458213,41.9948268 81.9920713,42.4119098 82.0787438,42.88857 C82.1762438,43.3652421 82.2249875,43.8744083 82.2249938,44.41607 L82.2249938,45.00107 L77.8862438,45.00107 M81.1362438,44.10732 C81.1362388,43.2948255 81.0116563,42.6448261 80.7624938,42.15732 C80.5133225,41.6589938 80.1233238,41.4098274 79.5924938,41.40982 C79.2783238,41.4098274 79.0129075,41.5073275 78.7962438,41.70232 C78.5904075,41.8864936 78.417075,42.11941 78.2762438,42.40107 C78.1462413,42.6719095 78.0487425,42.9644091 77.9837438,43.27857 C77.9295813,43.5927419 77.9024938,43.8689916 77.9024938,44.10732 L81.1362438,44.10732" id="path11694" fill="#424242"></path>
            <path d="M85.2962488,42.49857 C85.4479138,41.7944104 85.68083,41.2852441 85.9949988,40.97107 C86.3091625,40.6569115 86.6666625,40.4998283 87.0674988,40.49982 C87.1541613,40.4998283 87.2191613,40.505245 87.2624988,40.51607 L87.2299988,41.62107 C87.1866613,41.610245 87.1433238,41.6048275 87.0999988,41.60482 C87.0674988,41.593995 87.0241613,41.5885775 86.9699988,41.58857 C86.6991625,41.5885773 86.4554125,41.68066 86.2387488,41.86482 C86.0329125,42.0489934 85.85958,42.2873265 85.7187488,42.57982 C85.5779138,42.8723259 85.46958,43.2081589 85.3937488,43.58732 C85.3287488,43.9556581 85.2962488,44.3239911 85.2962488,44.69232 L85.2962488,48.80357 L84.2237488,48.80357 L84.2237488,42.77482 C84.2237475,42.6014929 84.2183738,42.4173264 84.2074988,42.22232 C84.2074975,42.0164935 84.2021238,41.8214936 84.1912488,41.63732 C84.1912475,41.4423274 84.1858738,41.2689943 84.1749988,41.11732 C84.1749975,40.9548279 84.1696238,40.8302446 84.1587488,40.74357 L85.1987488,40.74357 C85.2204113,40.9494111 85.2366613,41.2094109 85.2474988,41.52357 C85.2583738,41.8269103 85.2637488,42.15191 85.2637488,42.49857 L85.2962488,42.49857" id="path11696" fill="#424242"></path>
            <path d="M90.642495,50.50982 C90.55582,50.8564846 90.4529088,51.1652343 90.333745,51.43607 C90.2254075,51.7069004 90.0899925,51.9344003 89.927495,52.11857 C89.7649925,52.3027331 89.5754088,52.4435664 89.358745,52.54107 C89.15291,52.6494 88.9037438,52.7035661 88.611245,52.70357 C88.4595775,52.7035661 88.3079113,52.6873163 88.156245,52.65482 C88.0045775,52.63315 87.879995,52.6060663 87.782495,52.57357 L87.928745,51.61482 C88.0045825,51.6364838 88.0966613,51.65815 88.204995,51.67982 C88.3133325,51.7014838 88.42166,51.7123175 88.529995,51.71232 C88.84416,51.7123171 89.0770763,51.6039838 89.228745,51.38732 C89.3912425,51.170651 89.5212425,50.8727346 89.618745,50.49357 L89.976245,49.09607 L87.636245,40.74357 L88.773745,40.74357 L90.512495,47.55232 L90.544995,47.55232 L92.088745,40.74357 L93.177495,40.74357 L90.642495,50.50982" id="path11698" fill="#424242"></path>
            <path d="M98.084995,48.80357 C98.07412,48.7169034 98.06332,48.6085702 98.052495,48.47857 C98.05249,48.3485705 98.04712,48.2131539 98.036245,48.07232 C98.03624,47.9206542 98.03624,47.779821 98.036245,47.64982 C98.03624,47.508988 98.03624,47.3898214 98.036245,47.29232 L98.003745,47.29232 C97.7329075,48.4406537 97.0829075,49.0148198 96.053745,49.01482 C95.8262425,49.0148198 95.5987425,48.9714865 95.371245,48.88482 C95.1437438,48.7981533 94.93791,48.6573202 94.753745,48.46232 C94.5695775,48.2673205 94.4179113,48.0235708 94.298745,47.73107 C94.1795825,47.427738 94.1199938,47.0648218 94.119995,46.64232 C94.1199938,46.0573228 94.2229075,45.5860733 94.428745,45.22857 C94.6345775,44.8710739 94.8945763,44.5894075 95.208745,44.38357 C95.52291,44.1777413 95.8641588,44.0423248 96.232495,43.97732 C96.6116588,43.9014913 96.9691575,43.863575 97.304995,43.86357 L97.938745,43.86357 L97.938745,43.44107 C97.93874,42.7369094 97.80874,42.2223266 97.548745,41.89732 C97.2887413,41.5723273 96.9366575,41.4098274 96.492495,41.40982 C96.1891588,41.4098274 95.9074925,41.4910775 95.647495,41.65357 C95.3874925,41.816077 95.16541,42.0219101 94.981245,42.27107 L94.412495,41.60482 C94.66166,41.2473275 94.98666,40.9710779 95.387495,40.77607 C95.7883263,40.5810783 96.1891588,40.4835784 96.589995,40.48357 C97.4349913,40.4835784 98.03624,40.759828 98.393745,41.31232 C98.75124,41.864827 98.92999,42.6719095 98.929995,43.73357 L98.929995,47.08107 C98.92999,47.189405 98.92999,47.3248215 98.929995,47.48732 C98.94087,47.6498212 98.946245,47.8177377 98.946245,47.99107 C98.95712,48.1535707 98.9679075,48.3106538 98.978745,48.46232 C98.98962,48.6031535 99.0004075,48.7169034 99.011245,48.80357 L98.084995,48.80357 M97.954995,44.70857 L97.304995,44.70857 C97.0449913,44.7085741 96.7849913,44.7356575 96.524995,44.78982 C96.2649925,44.8331575 96.0320763,44.9252405 95.826245,45.06607 C95.6312425,45.1960736 95.4687425,45.3802401 95.338745,45.61857 C95.2087438,45.8569063 95.1437438,46.165656 95.143745,46.54482 C95.1437438,47.108155 95.2683325,47.5144046 95.517495,47.76357 C95.7666588,48.0127375 96.0374925,48.1373207 96.329995,48.13732 C96.633325,48.1373207 96.8879088,48.0452374 97.093745,47.86107 C97.3104075,47.6769045 97.4783238,47.443988 97.597495,47.16232 C97.7274913,46.8806553 97.8195738,46.5719056 97.873745,46.23607 C97.9279075,45.9002396 97.954995,45.5752399 97.954995,45.26107 L97.954995,44.70857" id="path11700" fill="#424242"></path>
            <path d="M105.397494,48.80357 L105.397494,43.60357 C105.397489,43.3544088 105.381244,43.1052424 105.348744,42.85607 C105.327069,42.5960763 105.267494,42.3631598 105.169994,42.15732 C105.083319,41.9406603 104.953323,41.767327 104.779994,41.63732 C104.617489,41.496494 104.400823,41.4260774 104.129994,41.42607 C103.859156,41.4260774 103.615406,41.50191 103.398744,41.65357 C103.192908,41.7944104 103.014158,41.9948268 102.862494,42.25482 C102.721658,42.503993 102.607908,42.7964926 102.521244,43.13232 C102.445406,43.4573254 102.407494,43.798575 102.407494,44.15607 L102.407494,48.80357 L101.334994,48.80357 L101.334994,42.77482 C101.334993,42.6014929 101.329619,42.4173264 101.318744,42.22232 C101.318743,42.0164935 101.313369,41.8214936 101.302494,41.63732 C101.302493,41.4423274 101.297119,41.2689943 101.286244,41.11732 C101.286243,40.9548279 101.280869,40.8302446 101.269994,40.74357 L102.309994,40.74357 C102.331656,40.9494111 102.347906,41.1985776 102.358744,41.49107 C102.369619,41.783577 102.374994,42.0598268 102.374994,42.31982 L102.407494,42.31982 C102.559158,41.7781604 102.808324,41.3394108 103.154994,41.00357 C103.501656,40.6569115 103.93499,40.4835784 104.454994,40.48357 C104.888323,40.4835784 105.234989,40.5756613 105.494994,40.75982 C105.765821,40.9439945 105.971654,41.1877443 106.112494,41.49107 C106.253321,41.783577 106.345404,42.11941 106.388744,42.49857 C106.442906,42.8669093 106.469981,43.2352423 106.469994,43.60357 L106.469994,48.80357 L105.397494,48.80357" id="path11702" fill="#424242"></path>
            <path d="M112.774994,48.80357 L110.012494,44.74107 L109.979994,44.74107 L109.979994,48.80357 L108.907494,48.80357 L108.907494,36.51857 L109.979994,36.51857 L109.979994,44.30232 L110.012494,44.30232 L112.612494,40.74357 L113.896244,40.74357 L111.003744,44.48107 L114.074994,48.80357 L112.774994,48.80357" id="path11704" fill="#424242"></path>
            <path d="M116.00874,45.00107 C116.008739,45.44524 116.046653,45.8569063 116.12249,46.23607 C116.198328,46.6044055 116.306655,46.9294053 116.44749,47.21107 C116.599155,47.4819046 116.783321,47.6985711 116.99999,47.86107 C117.227488,48.0127375 117.492904,48.0885707 117.79624,48.08857 C118.186236,48.0885707 118.500403,47.9694041 118.73874,47.73107 C118.977069,47.492738 119.161235,47.2056549 119.29124,46.86982 L120.10374,47.34107 C119.908735,47.828571 119.616235,48.2402372 119.22624,48.57607 C118.847069,48.9010699 118.35957,49.0635697 117.76374,49.06357 C116.864571,49.0635697 116.165821,48.6844035 115.66749,47.92607 C115.169156,47.1677383 114.91999,46.1223226 114.91999,44.78982 C114.91999,44.1614913 114.98499,43.5819085 115.11499,43.05107 C115.24499,42.520243 115.429156,42.0652434 115.66749,41.68607 C115.916655,41.3069109 116.214571,41.0144111 116.56124,40.80857 C116.918738,40.5919115 117.314154,40.4835784 117.74749,40.48357 C118.224153,40.4835784 118.624986,40.586495 118.94999,40.79232 C119.285819,40.9981611 119.556651,41.2798275 119.76249,41.63732 C119.968318,41.9948268 120.114568,42.4119098 120.20124,42.88857 C120.29874,43.3652421 120.347484,43.8744083 120.34749,44.41607 L120.34749,45.00107 L116.00874,45.00107 M119.25874,44.10732 C119.258735,43.2948255 119.134153,42.6448261 118.88499,42.15732 C118.635819,41.6589938 118.24582,41.4098274 117.71499,41.40982 C117.40082,41.4098274 117.135404,41.5073275 116.91874,41.70232 C116.712905,41.8864936 116.539571,42.11941 116.39874,42.40107 C116.268739,42.6719095 116.171239,42.9644091 116.10624,43.27857 C116.052078,43.5927419 116.02499,43.8689916 116.02499,44.10732 L119.25874,44.10732" id="path11706" fill="#424242"></path>
            <path d="M122.281241,48.80357 L122.281241,36.51857 L123.353741,36.51857 L123.353741,48.80357 L122.281241,48.80357" id="path11708" fill="#424242"></path>
            <path d="M125.856245,48.80357 L125.856245,36.51857 L126.928745,36.51857 L126.928745,48.80357 L125.856245,48.80357" id="path11710" fill="#424242"></path>
            <path d="M131.462495,50.50982 C131.37587,50.8564846 131.272908,51.1652343 131.153745,51.43607 C131.04537,51.7069004 130.909995,51.9344003 130.747495,52.11857 C130.584995,52.3027331 130.395408,52.4435664 130.178745,52.54107 C129.972908,52.6494 129.723745,52.7035661 129.431245,52.70357 C129.27957,52.7035661 129.127908,52.6873163 128.976245,52.65482 C128.82457,52.63315 128.699995,52.6060663 128.602495,52.57357 L128.748745,51.61482 C128.82462,51.6364838 128.916658,51.65815 129.024995,51.67982 C129.13337,51.7014838 129.241658,51.7123175 129.349995,51.71232 C129.664158,51.7123171 129.89707,51.6039838 130.048745,51.38732 C130.211245,51.170651 130.341245,50.8727346 130.438745,50.49357 L130.796245,49.09607 L128.456245,40.74357 L129.593745,40.74357 L131.332495,47.55232 L131.364995,47.55232 L132.908745,40.74357 L133.997495,40.74357 L131.462495,50.50982" id="path11712" fill="#424242"></path>
            <path d="M136.207495,48.10482 C136.207495,48.3431538 136.13162,48.5381536 135.979995,48.68982 C135.83917,48.8414866 135.66042,48.9173199 135.443745,48.91732 C135.227083,48.9173199 135.048333,48.8414866 134.907495,48.68982 C134.76667,48.5381536 134.696245,48.3431538 134.696245,48.10482 C134.696245,47.8881543 134.76662,47.6985711 134.907495,47.53607 C135.048333,47.3735714 135.227083,47.2923215 135.443745,47.29232 C135.66042,47.2923215 135.83917,47.3735713 135.979995,47.53607 C136.131658,47.6985711 136.207495,47.8881543 136.207495,48.10482" id="path11714" fill="#424242"></path>
            <path d="M142.544995,48.23482 C142.111658,48.78732 141.515833,49.0635697 140.757495,49.06357 C140.302495,49.0635697 139.901658,48.9606531 139.554995,48.75482 C139.208333,48.5381536 138.915833,48.2456539 138.677495,47.87732 C138.449995,47.4981546 138.27667,47.0485718 138.157495,46.52857 C138.03837,45.9977395 137.978745,45.41274 137.978745,44.77357 C137.978745,44.134408 138.03837,43.5548253 138.157495,43.03482 C138.27662,42.503993 138.455408,42.0489934 138.693745,41.66982 C138.932083,41.2906609 139.224583,40.9981611 139.571245,40.79232 C139.917908,40.5864949 140.318745,40.4835784 140.773745,40.48357 C141.185408,40.4835784 141.537495,40.5594113 141.829995,40.71107 C142.122495,40.8627446 142.355408,41.0414944 142.528745,41.24732 L141.959995,42.02732 C141.829995,41.8431603 141.667495,41.6969105 141.472495,41.58857 C141.277495,41.4802438 141.049995,41.4260774 140.789995,41.42607 C140.497495,41.4260774 140.242908,41.5127438 140.026245,41.68607 C139.820408,41.848577 139.647083,42.0814934 139.506245,42.38482 C139.365408,42.6773261 139.257083,43.0294091 139.181245,43.44107 C139.116245,43.8419083 139.083745,44.2860745 139.083745,44.77357 C139.083745,45.2502403 139.116245,45.6889898 139.181245,46.08982 C139.25712,46.4906556 139.365408,46.837322 139.506245,47.12982 C139.647083,47.4223214 139.825833,47.6498212 140.042495,47.81232 C140.269995,47.9748208 140.535408,48.0560708 140.838745,48.05607 C141.109583,48.0560708 141.342495,48.0019041 141.537495,47.89357 C141.743333,47.7744044 141.916658,47.6119045 142.057495,47.40607 L142.544995,48.23482" id="path11716" fill="#424242"></path>
            <path d="M149.061245,44.78982 C149.061233,45.42899 148.996245,46.0085728 148.866245,46.52857 C148.736233,47.0485718 148.55207,47.4981546 148.313745,47.87732 C148.075408,48.2564872 147.777483,48.5489869 147.419995,48.75482 C147.07332,48.9606532 146.68332,49.0635697 146.249995,49.06357 C145.816658,49.0635697 145.426658,48.9606531 145.079995,48.75482 C144.73332,48.5489869 144.435408,48.2564872 144.186245,47.87732 C143.947908,47.4981546 143.763745,47.0485718 143.633745,46.52857 C143.503745,46.0085728 143.438745,45.42899 143.438745,44.78982 C143.438745,44.150658 143.49837,43.5656586 143.617495,43.03482 C143.747495,42.503993 143.931658,42.0489934 144.169995,41.66982 C144.40832,41.2906609 144.70082,40.9981611 145.047495,40.79232 C145.404995,40.5864949 145.80582,40.4835784 146.249995,40.48357 C146.68332,40.4835784 147.07332,40.586495 147.419995,40.79232 C147.777483,40.9981611 148.075408,41.2906609 148.313745,41.66982 C148.55207,42.0489934 148.736233,42.503993 148.866245,43.03482 C148.996233,43.5656586 149.061233,44.150658 149.061245,44.78982 M147.956245,44.77357 C147.956233,44.2969079 147.91837,43.8527416 147.842495,43.44107 C147.777495,43.0294091 147.67457,42.6773261 147.533745,42.38482 C147.392908,42.0814934 147.214158,41.8431603 146.997495,41.66982 C146.791658,41.496494 146.542495,41.4098274 146.249995,41.40982 C145.957495,41.4098274 145.702908,41.4964938 145.486245,41.66982 C145.26957,41.8431603 145.09082,42.0814934 144.949995,42.38482 C144.819995,42.6773261 144.71707,43.0294091 144.641245,43.44107 C144.576245,43.8527416 144.543745,44.2969079 144.543745,44.77357 C144.543745,45.2502403 144.576245,45.6889898 144.641245,46.08982 C144.71712,46.4906556 144.819995,46.8427386 144.949995,47.14607 C145.09082,47.4494048 145.26957,47.6877378 145.486245,47.86107 C145.702908,48.0235708 145.957495,48.1048207 146.249995,48.10482 C146.542495,48.1048207 146.79707,48.0235708 147.013745,47.86107 C147.230408,47.6877378 147.403745,47.4494048 147.533745,47.14607 C147.67457,46.8427386 147.777483,46.4906556 147.842495,46.08982 C147.91837,45.6889898 147.956245,45.2502403 147.956245,44.77357" id="path11718" fill="#424242"></path>
            <path d="M152.213745,42.31982 C152.33287,41.7781604 152.560408,41.3394108 152.896245,41.00357 C153.242908,40.6569115 153.68707,40.4835784 154.228745,40.48357 C154.521245,40.4835784 154.770408,40.537745 154.976245,40.64607 C155.192908,40.7435775 155.371658,40.8789946 155.512495,41.05232 C155.664158,41.2148276 155.777908,41.4098274 155.853745,41.63732 C155.94037,41.864827 156.005408,42.0977434 156.048745,42.33607 L156.081245,42.33607 C156.146245,42.0977434 156.23832,41.8702436 156.357495,41.65357 C156.47662,41.4260774 156.622908,41.2256609 156.796245,41.05232 C156.980408,40.8789946 157.186233,40.743578 157.413745,40.64607 C157.65207,40.537745 157.917483,40.4835784 158.209995,40.48357 C158.64332,40.4835784 158.989983,40.5756613 159.249995,40.75982 C159.509983,40.9439945 159.710408,41.1877443 159.851245,41.49107 C160.002908,41.783577 160.100408,42.11941 160.143745,42.49857 C160.19787,42.8669093 160.224995,43.2352423 160.224995,43.60357 L160.224995,48.80357 L159.136245,48.80357 L159.136245,43.60357 C159.136233,43.3544088 159.119995,43.1052424 159.087495,42.85607 C159.06587,42.5960763 159.01162,42.3631598 158.924995,42.15732 C158.83837,41.9406603 158.70832,41.767327 158.534995,41.63732 C158.372483,41.496494 158.150408,41.4260774 157.868745,41.42607 C157.608733,41.4260774 157.370408,41.50191 157.153745,41.65357 C156.947908,41.7944104 156.77457,41.9948268 156.633745,42.25482 C156.492908,42.503993 156.38457,42.7964926 156.308745,43.13232 C156.23287,43.4573254 156.194995,43.798575 156.194995,44.15607 L156.194995,48.80357 L155.122495,48.80357 L155.122495,43.60357 C155.122495,43.3544088 155.106245,43.0998258 155.073745,42.83982 C155.05212,42.5798263 154.99787,42.3469098 154.911245,42.14107 C154.83537,41.9244103 154.71082,41.751077 154.537495,41.62107 C154.374995,41.4910773 154.15832,41.4260774 153.887495,41.42607 C153.616658,41.4260774 153.37832,41.50191 153.172495,41.65357 C152.966658,41.7944104 152.787908,41.9948268 152.636245,42.25482 C152.495408,42.503993 152.38707,42.7964926 152.311245,43.13232 C152.23537,43.4573254 152.197495,43.798575 152.197495,44.15607 L152.197495,48.80357 L151.141245,48.80357 L151.141245,42.77482 C151.141245,42.6014929 151.136245,42.4173264 151.124995,42.22232 C151.124995,42.0164935 151.119995,41.8214936 151.108745,41.63732 C151.108745,41.4423274 151.103745,41.2689943 151.092495,41.11732 C151.092495,40.9548279 151.087495,40.8302446 151.076245,40.74357 L152.116245,40.74357 C152.13787,40.9494111 152.15412,41.1985776 152.164995,41.49107 C152.176245,41.783577 152.181245,42.0598268 152.181245,42.31982 L152.213745,42.31982" id="path11720" fill="#424242"></path>
        </g>
    </g>
</svg>